<?xml version="1.0" encoding="UTF-8"?>
<svg
   viewBox="0 0 1000 500"
   width="1000"
   height="500"
   xmlns="http://www.w3.org/2000/svg">

  <defs />

  <!-- Rectángulo izquierdo -->
  <rect
     x="44"
     y="36"
     width="462.70999"
     height="432.70999"
     rx="39.629837"
     ry="37.060417"
     fill="#3fa129" />

  <!-- Figura izquierda -->
  <path
     d="m 113.18633,411.79378
        h 106.34308
        c 0,0 29.07394,-250.39757 14.05441,-250.39757
        -15.01951,0 -120.39749,250.39757 -120.39749,250.39757 z

        m 178.54539,0
        h 106.28275
        c 0,0 50.12541,-250.39757 35.10589,-250.39757
        -15.01953,0 -141.38864,250.39757 -141.38864,250.39757 z

        m -36.13132,0
        77.20882,-143.50336
        c 0,0 28.10883,-170.692281 15.01953,-170.692281
        -13.08931,0 -79.25968,151.964641 -79.25968,151.964641
        l -13.02898,162.231 z"
     fill="#ffffff" />

  <!-- Rectángulo derecho -->
  <rect
     x="523"
     y="35"
     width="439.70999"
     height="435.70999"
     rx="37.65995"
     ry="37.31736"
     fill="#81b9ef" />

  <!-- Figura derecha -->
  <path
     d="m 656.20954,192.33499
        c -10.86739,25.16224 -42.0131,131.32076 -49.35139,188.29079
        -3.75317,28.91102 -7.33829,38.96455 0,41.17974
        9.2989,2.83998 48.45511,-58.56043 62.40346,-82.18907
        0,0 89.17981,13.57511 134.94608,-44.24692
        1.06434,-1.36319 -0.11203,-3.35118 -1.79255,-3.01038
        -18.03763,3.12398 -82.96188,13.29111 -111.69884,1.98799
        0,0 117.02049,4.60077 170.18107,-83.32507
        0.72823,-1.13599 -0.44814,-2.61278 -1.68052,-2.15839
        -18.42975,6.75916 -98.03057,33.28459 -145.70144,20.78867
        0,0 77.47216,-4.60077 136.01042,-58.56042
        58.53825,-53.95966 63.35575,-81.223482 59.15444,-85.483455
        -7.95448,-8.065548 -48.45511,12.268725 -81.05727,22.663055
        -32.60217,10.39433 -73.60696,22.66305 -100.60738,28.34302
        -27.00042,5.67996 -49.35139,6.13436 -70.80608,55.72044 z"
     fill="#ffffff" />

</svg>
