
 
   <svg xmlns="http://www.w3.org/2000/svg" viewBox="0 0 1000 500" width="1000" height="500">

  <!-- Fondo azul -->
  <rect width="415.05585" height="439.11603" rx="35.548393" ry="37.609077" fill="#2980ef" x="61.654137" y="16.541353"/>

  <!-- Icono marrón -->
  <g transform="matrix(5.4989283,0,0,5.69496,513.94737,19.796993)">
    <rect width="76.71" height="76.71" rx="6.57" ry="6.57" fill="#915121"/>
    
    <path fill="#ffffff" d="m 52.29,16.07 h 8.31 v 8.31 h -8.31 z m -24.44,6.49 h 6.48 v 6.48 H 27.85 Z M 13.55,8.92 H 24.36 V 19.73 H 13.55 Z M 67.44,48.21 V 46.1 L 38.35,34.49 9.26,46.1 v 2.11 l 29.09,11.6 z"/>
    
    <path fill="#ffffff" d="M 67.52,53.52 38.35,65.3 9.19,53.52 7.72,57.16 38.35,69.54 68.99,57.16 Z"/>
  </g>

  <!-- Icono blanco -->
  <path d="m 353.83268,254.50319 c 0,0 -21.42642,-39.26914 -31.65267,-55.98429 -10.65911,-17.5738 -20.66893,-38.52497 -28.46035,-72.18423 -7.79144,-33.602022 -12.01179,-66.001927 -24.56465,-66.001927 -12.55286,0 -16.77321,32.342661 -24.56464,66.001927 -7.79143,33.60202 -17.80125,54.55319 -28.46035,72.18423 -10.17215,16.77239 -31.65269,55.98429 -31.65269,55.98429 a 97.490241,103.1416 0 0 0 -13.95964,53.35108 c 0,57.41538 44.36786,104.01171 98.63732,104.01171 54.26946,0 98.63732,-46.53908 98.63732,-104.01171 0,-19.52009 -5.14018,-37.72356 -13.95965,-53.35108 z m -84.67767,133.89289 c -44.25964,0 -79.05053,-34.91862 -79.05053,-60.10583 0,-16.65789 34.79089,14.4254 79.05053,14.4254 44.25964,0 79.05053,-31.08329 79.05053,-14.4254 0,25.24445 -34.79089,60.10583 -79.05053,60.10583 z" fill="#ffffff"/>

</svg>
