<?xml version="1.0" encoding="UTF-8" standalone="no"?>
<svg
    xmlns="http://www.w3.org/2000/svg"
    viewBox="0 0 1000 500"
    width="1000"
    height="500">

  <!-- Ícono izquierdo -->
  <g transform="translate(61,22) scale(5.64,5.85)">
    <rect
        width="76.71"
        height="76.71"
        rx="6.57"
        ry="6.57"
        fill="#915121" />

    <path
        fill="#ffffff"
        d="M52.29 16.07h8.31v8.31h-8.31z
           M27.85 22.56h6.48v6.48h-6.48z
           M13.55 8.92h10.81v10.81H13.55z
           M67.44 48.21v-2.11L38.35 34.49 9.26 46.1v2.11l29.09 11.6z" />

    <path
        fill="#ffffff"
        d="M67.52 53.52 38.35 65.3 9.19 53.52 7.72 57.16
           38.35 69.54 68.99 57.16z" />
  </g>

  <!-- Fondo derecho -->
  <rect
      x="526"
      y="24"
      width="428.71"
      height="445.71"
      rx="36.72"
      ry="38.17"
      fill="#81b9ef" />

  <!-- Forma derecha -->
  <path
      fill="#ffffff"
      d="M658.9 184.95
         c-10.84 25.74-41.92 134.33-49.24 192.61
         -3.74 29.57-7.32 39.86 0 42.12
         9.28 2.91 48.34-59.9 62.26-84.08
         0 0 88.97 13.89 134.63-45.26
         1.06-1.39-0.11-3.43-1.79-3.08
         -18 3.2-82.77 13.6-111.44 2.03
         0 0 116.75 4.71 169.79-85.24
         0.73-1.16-0.45-2.67-1.68-2.21
         -18.39 6.91-97.8 34.05-145.36 21.27
         0 0 77.29-4.71 135.69-59.9
         58.4-55.2 63.21-83.09 59.02-87.45
         -7.94-8.25-48.34 12.55-80.87 23.18
         -32.53 10.63-73.44 23.18-100.37 28.99
         -26.94 5.81-49.24 6.28-70.64 57z" />

</svg>
