<?xml version="1.0" encoding="UTF-8"?>
<svg
    xmlns="http://www.w3.org/2000/svg"
    viewBox="0 0 1000 500"
    width="1000"
    height="500">

  <!-- Lado derecho -->
  <rect
      x="510"
      y="24"
      width="452.71"
      height="448.71"
      rx="38.77"
      ry="38.43"
      fill="#afa981" />

  <path
      fill="#ffffff"
      d="M856.48 129.29
         872.24 197.85
         787.31 113.67
         856.48 129.29
         806.73 80.0
         H665.98
         L566.48 178.6
         V318.11
         L615.05 366.25
         588.55 250.9
         731.43 392.51
         615.05 366.25
         665.98 416.73
         H806.73
         L856.48 367.42
         740.1 393.68
         882.98 252.06
         856.48 367.42
         906.23 318.11
         V178.6
         Z" />

  <!-- Lado izquierdo -->
  <rect
      x="38"
      y="20"
      width="452.71"
      height="454.71"
      rx="38.77"
      ry="38.94"
      fill="#91a119" />

  <path
      fill="#ffffff"
      d="M264.33 187.34
         c47.8 0 89.64-20.39 112.54-50.8
         -22.9-37.23-64.74-62.18-112.54-62.18
         -47.8 0-89.64 24.96-112.54 62.18
         22.9 30.41 64.74 50.8 112.54 50.8z

         m134.79-25.25
         c-26.91 29.76-69.05 50.21-117.32 54.18
         l64.5 204.03
         c51.17-32.72 85.1-89.69 85.1-154.59
         0-38.47-11.92-74.1-32.28-103.62z

         m-269.53 0
         c26.91 29.76 69.05 50.21 117.32 54.18
         L182.41 420.29
         C131.24 387.57 97.31 330.61 97.31 265.7
         c0-38.47 11.92-74.1 32.28-103.62z

         M264.33 344.36
         c9.8 0 19.53-2.19 28.5-6.46
         l-7.67-28.1
         a38.68 38.85 0 0 1 -41.72 0
         l-7.67 28.1
         c9.03 4.27 18.77 6.46 28.5 6.46z

         m0 54.18
         c14.93 0 29.39-2.85 42.9-8.06
         L299.38 361.73
         c-10.92 4.68-22.78 7.17-35.05 7.17
         -12.28 0-24.08-2.49-35.06-7.17
         l-7.85 28.75
         c13.51 5.22 27.97 8.06 42.91 8.06z" />

</svg>
