<svg viewBox="0 0 1000 500" xmlns="http://www.w3.org/2000/svg">

  <!-- Bloque azul -->
  <rect 
    x="45" 
    y="23" 
    width="446.71" 
    height="433.71" 
    rx="38.26" 
    ry="37.15" 
    fill="#2980ef" />

  <path 
    d="m 359.46148,258.03226 c 0,0 -23.06051,-38.78569 -34.06666,-55.29505 -11.47202,-17.35745 -22.24524,-38.05069 -30.63088,-71.29557 -8.38564,-33.188346 -12.92786,-65.189371 -26.43805,-65.189371 -13.5102,0 -18.05242,31.944486 -26.43806,65.189371 -8.38564,33.18834 -19.15886,53.88158 -30.63088,71.29557 -10.94792,16.5659 -34.06666,55.29505 -34.06666,55.29505 a 104.92531,101.87181 0 0 0 -15.02427,52.69427 c 0,56.70853 47.75156,102.73121 106.15987,102.73121 58.4083,0 106.15986,-45.96614 106.15986,-102.73121 0,-19.27977 -5.53219,-37.25914 -15.02427,-52.69427 z 
       m -91.13559,132.24452 c -47.6351,0 -85.07931,-34.48874 -85.07931,-59.36586 0,-16.45282 37.44421,14.24781 85.07931,14.24781 47.63509,0 85.0793,-30.70063 85.0793,-14.24781 0,24.93366 -37.44421,59.36586 -85.0793,59.36586 z"
    fill="#ffffff" />

  <!-- Bloque amarillo -->
  <rect 
    x="535" 
    y="25" 
    width="414.71" 
    height="431.71" 
    rx="35.52" 
    ry="36.97" 
    fill="#fac000" />

  <path 
    d="m 742.4612,60.895166 c 13.51551,6.415714 69.41568,33.992027 107.25911,68.771954 1.67592,1.51951 1.83811,4.22085 0.37844,5.96549 -8.37961,10.13007 -36.00533,43.6156 -69.30756,84.36101 -1.45967,1.80089 -1.29748,4.50225 0.37844,6.07804 9.73118,8.94823 40.43841,37.65011 58.9817,58.69814 1.51374,1.68836 1.40562,4.33343 -0.21625,5.9655 -16.11049,16.15183 -95.85202,96.0106 -126.77551,123.64318 -1.62187,1.46323 -4.10871,-0.11255 -3.62216,-2.3074 4.0006,-16.99602 15.13738,-62.1874 26.97696,-95.05386 0.64875,-1.74463 0.10813,-3.71436 -1.35155,-4.83993 -11.62333,-9.22962 -62.49573,-49.86248 -95.90608,-81.0406 a 4.03,4.2 0 0 1 -0.865,-5.12 c 7.35244,-14.74488 42.1684,-82.8415 99.04168,-163.600703 1.1353,-1.632067 3.24372,-2.251126 4.97371,-1.406954 z"
    fill="#ffffff" />

</svg>
