<?xml version="1.0" encoding="UTF-8"?>
<svg
  viewBox="0 0 1000 500"
  width="1000"
  height="500"
  xmlns="http://www.w3.org/2000/svg">

  <!-- Figura izquierda -->
  <path
    d="m 113.18633,411.79378 h 106.34308 c 0,0 29.07394,-250.39757 14.05441,-250.39757 -15.01951,0 -120.39749,250.39757 -120.39749,250.39757 z 
       m 178.54539,0 h 106.28275 c 0,0 50.12541,-250.39757 35.10589,-250.39757 -15.01953,0 -141.38864,250.39757 -141.38864,250.39757 z 
       m -36.13132,0 77.20882,-143.50336 c 0,0 28.10883,-170.692281 15.01953,-170.692281 -13.08931,0 -79.25968,151.964641 -79.25968,151.964641 l -13.02898,162.231 z"
    fill="#ffffff"/>

  <!-- Fondo derecho -->
  <rect
    width="439.70999"
    height="435.70999"
    rx="37.66"
    ry="37.31"
    fill="#81b9ef"
    x="523"
    y="35"/>

  <!-- Figura derecha -->
  <path
    d="m 656.20954,192.33499 c -10.86739,25.16224 -42.0131,131.32076 -49.35139,188.29079 -3.75317,28.91102 -7.33829,38.96455 0,41.17974 
       9.2989,2.83998 48.45511,-58.56043 62.40346,-82.18907 0,0 89.17981,13.57511 134.94608,-44.24692 
       1.06434,-1.36319 -0.11203,-3.35118 -1.79255,-3.01038 -18.03763,3.12398 -82.96188,13.29111 -111.69884,1.98799 
       0,0 117.02049,4.60077 170.18107,-83.32507 0.72823,-1.13599 -0.44814,-2.61278 -1.68052,-2.15839 
       -18.42975,6.75916 -98.03057,33.28459 -145.70144,20.78867 
       0,0 77.47216,-4.60077 136.01042,-58.56042 
       58.53825,-53.95966 63.35575,-81.223482 59.15444,-85.483455 
       -7.95448,-8.065548 -48.45511,12.268725 -81.05727,22.663055 
       -32.60217,10.39433 -73.60696,22.66305 -100.60738,28.34302 
       -27.00042,5.67996 -49.35139,6.13436 -70.80608,55.72044 z"
    fill="#ffffff"/>

  <!-- Ícono (solo una vez, no duplicado) -->
  <g transform="matrix(5.76,0,0,5.70,63.9,35.13)">
    <rect
      width="76.71"
      height="76.71"
      rx="6.57"
      ry="6.57"
      fill="#50413f"/>
    <path
      fill="#ffffff"
      d="m 60.1,20.73 c 0,0 -3.25,4.41 -10.78,6.74 
         0.84,2.28 1.32,4.93 1.32,7.9 
         0,10.15 -5.5,18.39 -12.28,18.39 
         -6.78,0 -12.28,-7.27 -12.28,-18.39 
         0,-2.95 0.58,-5.58 1.52,-7.84 
         -7.67,-2.32 -10.98,-6.8 -10.98,-6.8 
         0,0 -7.54,8.04 -6.83,17.19 
         0.42,5.33 3.3,11.6 10.35,17.38 
         0,0 7.54,6.66 18.22,6.66 
         10.68,0 18.22,-6.66 18.22,-6.66 
         C 63.63,49.52 66.51,43.26 66.93,37.92 
         67.65,28.77 60.1,20.73 60.1,20.73 Z"/>
    <path
      fill="#ffffff"
      d="m 35.54,28.85 c -0.96,2 -1.58,4.89 -1.58,7.72 
         0,5.08 1.97,9.19 4.39,9.19 
         2.42,0 4.39,-4.12 4.39,-9.19 
         0,-2.84 -0.61,-5.73 -1.58,-7.72 
         -0.9,0.04 -1.84,0.05 -2.81,0.02 
         -0.97,0.03 -1.91,0.02 -2.81,-0.02 z"/>
  </g>

</svg>
