<?xml version="1.0" encoding="UTF-8"?>
<svg
   viewBox="0 0 1000 500"
   width="1000"
   height="500"
   xmlns="http://www.w3.org/2000/svg">

  <!-- Rectángulo derecho -->
  <rect
     x="501"
     y="26"
     width="474.71"
     height="432.71"
     rx="40.66"
     ry="37.06"
     fill="#ef71ef" />

  <!-- Forma blanca derecha -->
  <path
     d="M911.66 94.14
        C898.17 81.84 815.06 76.32 759.12 127.31
        C749.53 136.05 742.85 146.49 739.01 157.49
        C735.17 146.43 728.49 136.05 718.90 127.31
        C662.95 76.32 579.84 81.84 566.35 94.14
        C552.86 106.44 546.79 182.20 602.74 233.19
        C614.56 243.96 629.10 250.73 644.39 253.55
        C613.45 277.97 609.92 316.61 615.86 324.17
        C622.17 332.18 667.84 342.28 704.41 318.87
        C702.74 323.33 701.13 327.90 699.52 332.64
        C684.23 378.22 678.54 417.03 686.71 419.28
        C694.94 421.59 714.00 386.50 729.29 340.93
        C733.13 329.48 736.41 318.42 738.95 308.27
        C741.49 318.42 744.77 329.48 748.61 340.93
        C763.90 386.50 782.96 421.59 791.19 419.28
        C799.42 416.97 793.67 378.16 778.38 332.64
        C776.77 327.90 775.16 323.33 773.49 318.87
        C810.06 342.28 855.73 332.18 862.04 324.17
        C867.98 316.61 864.45 277.97 833.51 253.55
        C848.80 250.73 863.34 243.96 875.16 233.19
        C931.11 182.20 925.05 106.44 911.66 94.14 Z"
     fill="#ffffff" />

  <!-- Rectángulo izquierdo -->
  <rect
     x="40"
     y="20"
     width="440.71"
     height="434.71"
     rx="37.75"
     ry="37.23"
     fill="#2980ef" />

  <!-- Forma blanca izquierda -->
  <path
     d="M351.65 258.28
        C351.65 258.28 328.79 218.96 317.88 202.22
        C306.51 184.62 295.83 163.64 287.52 129.94
        C279.21 96.29 274.71 63.85 261.32 63.85
        C247.93 63.85 243.43 96.24 235.12 129.94
        C226.81 163.59 216.13 184.57 204.76 202.22
        C193.91 219.02 171.00 258.28 171.00 258.28
        C161.06 273.62 156.11 291.70 156.11 311.71
        C156.11 369.20 203.43 415.86 261.32 415.86
        C319.21 415.86 366.53 369.26 366.53 311.71
        C366.53 292.16 361.05 273.93 351.65 258.28 Z"
     fill="#ffffff" />

</svg>
