<svg viewBox="0 0 1000 500" xmlns="http://www.w3.org/2000/svg">
  
  <!-- Fondo verde -->
  <rect 
    x="55" 
    y="30" 
    width="452.71" 
    height="425.71" 
    rx="38.77" 
    ry="36.46" 
    fill="#91a119" />

  <!-- Figura blanca -->
  <path 
    d="m 281.3255,186.66527 c 47.80277,0 89.64495,-19.09062 112.54307,-47.56008 -22.89812,-34.85151 -64.7403,-58.215336 -112.54307,-58.215336 -47.80279,0 -89.64496,23.363826 -112.54309,58.215336 22.89813,28.46946 64.7403,47.56008 112.54309,47.56008 z 
       m 134.79202,-23.6413 c -26.91119,27.859 -69.04845,47.00512 -117.32335,50.72337 l 64.50424,191.01732 c 51.16667,-30.63381 85.10074,-83.9655 85.10074,-144.73364 0,-36.01693 -11.92118,-69.37003 -32.28163,-97.00705 z 
       m -269.52504,0 c 26.91119,27.859 69.04846,47.00512 117.32336,50.72337 L 199.4116,404.76466 c -51.16667,-30.63381 -85.10075,-83.9655 -85.10075,-144.73364 0,-36.01693 11.92119,-69.37003 32.28163,-97.00705 z 
       M 281.3255,333.67424 c 9.79662,0 19.53421,-2.05334 28.50461,-6.04906 l -7.67205,-26.30512 a 38.678939,36.372094 0 0 1 -41.72415,0 l -7.67205,26.30512 c 9.0294,3.99572 18.76702,6.04906 28.50461,6.04906 z 
       m 0,50.72337 c 14.93098,0 29.38986,-2.6638 42.90446,-7.54746 l -7.8491,-26.91557 c -10.9179,4.38418 -22.78008,6.71502 -35.05536,6.71502 -12.27528,0 -24.07843,-2.33084 -35.05538,-6.71502 l -7.8491,26.91557 c 13.51462,4.88366 27.97348,7.54746 42.90448,7.54746 z"
    fill="#ffffff" />

  <!-- Bloque azul -->
  <g transform="matrix(5.614783,0,0,5.5626386,531,32)">
    
    <rect 
      width="76.71" 
      height="76.71" 
      rx="6.57" 
      ry="6.57" 
      fill="#60a1b8" />

    <path 
      d="M 41,27.35 50.18,59.37 67.55,46.75 59.52,22.04 Z 
         M 52.3,37.6 c -2.52,0 -4.56,-2.04 -4.56,-4.56 0,-2.52 2.04,-4.56 4.56,-4.56 2.52,0 4.56,2.04 4.56,4.56 0,2.52 -2.04,4.56 -4.56,4.56 z"
      fill="#ffffff" />

    <path 
      d="M 37.9,38.21 33.61,23.26 57.68,16.36 56.4,12.43 H 20.3 L 9.15,46.75 Z 
         M 26.03,15.23 c 1.87,0 3.38,1.51 3.38,3.38 0,1.87 -1.51,3.38 -3.38,3.38 -1.87,0 -3.38,-1.51 -3.38,-3.38 0,-1.87 1.51,-3.38 3.38,-3.38 z 
         m 13.01,26.95 -25.69,7.63 25,18.17 6.69,-4.87 z"
      fill="#ffffff" />

  </g>

</svg>
