

<?xml version="1.0" encoding="UTF-8" standalone="no"?>
<svg
   viewBox="0 0 1000 500"
   version="1.1"
   id="svg1"
   width="1000"
   height="500"
   xmlns="http://www.w3.org/2000/svg"
   xmlns:svg="http://www.w3.org/2000/svg">
  <defs
     id="defs1" />
  <rect
     width="432.51981"
     height="472.61053"
     rx="37.044128"
     ry="40.477791"
     fill="#e62829"
     id="rect1"
     x="57.425743"
     y="17.188931"
     style="stroke-width:5.8939" />
  <path
     d="m 371.78609,239.64186 c -33.53692,-31.77366 -23.07239,-56.39052 -7.62775,-69.47018 0,0 -41.16468,-4.87399 -55.78981,27.94848 -14.68817,32.82251 13.61649,49.72732 13.61649,49.72732 0,0 -40.8495,-15.91768 -29.37633,-54.90982 10.14932,-34.3032 28.80897,-52.31854 20.42474,-88.71943 -9.4559,-41.151495 -69.15415,-58.549887 -98.02616,-47.753014 20.17258,6.663217 34.73467,25.233827 34.73467,47.259454 0,25.66569 -20.73995,42.69391 -48.60332,70.27221 -32.2131,31.77364 -65.0566,67.68096 -65.0566,125.3054 0,66.50874 41.92117,107.66022 92.16352,122.59077 -25.4679,-11.90741 -78.48399,-49.29542 -71.86486,-121.23344 6.93433,-75.88657 81.25771,-127.71156 81.25771,-127.71156 0,0 -16.01199,26.28266 -9.01462,68.85318 3.90843,23.9382 21.43335,53.3674 38.13878,66.13855 23.45065,17.95366 54.466,36.58597 49.99021,70.64238 -4.22363,31.95876 -47.59471,46.27232 -69.46936,47.56796 9.96022,1.60406 20.10955,2.28276 30.1328,1.97427 74.44947,0 129.73496,-54.16945 129.73496,-111.79388 0,-45.59366 -22.31594,-64.34937 -35.4281,-76.68865 z"
     fill="#ffffff"
     id="path1"
     style="stroke-width:6.23641" />
  <rect
     width="431.32886"
     height="464.0181"
     rx="36.942131"
     ry="39.741875"
     fill="#ff8000"
     id="rect1-8"
     x="511.37354"
     y="20.79208"
     style="stroke-width:5.83203" />
  <path
     d="m 747.28656,220.28703 h 141.91576 v 67.99554 H 747.28656 Z M 834.06349,68.879977 V 190.41856 h 55.13883 V 68.879977 Z m -31.63811,0 H 747.28656 V 190.41856 h 55.13882 z m -85.93075,0 H 661.35581 V 228.68326 h 55.13882 z m -86.77695,0 H 574.57886 V 228.68326 h 55.13882 z M 721.05155,285.18561 H 574.57886 v 89.26134 l 93.80765,64.82977 220.81581,-71.9872 V 316.49935 H 721.05155 v -31.24492 z"
     fill="#ffffff"
     id="path1-8"
     style="stroke-width:6.69343" />
</svg>
