<?xml version="1.0" encoding="UTF-8" standalone="no"?>
<svg
   viewBox="0 0 1000 500"
   width="1000"
   height="500"
   xmlns="http://www.w3.org/2000/svg">

  <!-- LADO IZQUIERDO -->
  <rect
     width="452.71"
     height="454.71"
     rx="38.77"
     ry="38.94"
     fill="#91a119"
     x="38"
     y="20" />

  <path
     fill="#ffffff"
     d="m 264.33,187.34
        c 47.8,0 89.64,-20.39 112.54,-50.8
        -22.9,-37.23 -64.74,-62.18 -112.54,-62.18
        -47.8,0 -89.64,24.96 -112.54,62.18
        22.9,30.41 64.74,50.8 112.54,50.8 z

        m 134.79,-25.25
        c -26.91,29.76 -69.05,50.21 -117.32,54.18
        l 64.5,204.03
        c 51.17,-32.72 85.1,-89.69 85.1,-154.59
        0,-38.47 -11.92,-74.1 -32.28,-103.62 z

        m -269.53,0
        c 26.91,29.76 69.05,50.21 117.32,54.18
        L 182.41,420.29
        C 131.24,387.57 97.31,330.61 97.31,265.7
        c 0,-38.47 11.92,-74.1 32.28,-103.62 z

        M 264.33,344.36
        c 9.8,0 19.53,-2.19 28.5,-6.46
        l -7.67,-28.1
        a 38.68,38.85 0 0 1 -41.72,0
        l -7.67,28.1
        c 9.03,4.27 18.77,6.46 28.5,6.46 z

        m 0,54.18
        c 14.93,0 29.39,-2.85 42.9,-8.06
        L 299.38,361.73
        c -10.92,4.68 -22.78,7.17 -35.05,7.17
        -12.28,0 -24.08,-2.49 -35.06,-7.17
        l -7.85,28.75
        c 13.51,5.22 27.97,8.06 42.9,8.06 z" />

  <!-- LADO DERECHO -->
  <rect
     width="449.7"
     height="448.7"
     rx="38.51"
     ry="38.43"
     fill="#ff8000"
     x="512"
     y="25" />

  <!-- ICONO BLANCO DERECHO -->
  <path
     fill="#ffffff"
     d="m 751.67,223.03 127.8,-0.27 0.12,57.79 -127.8,0.27 z
        m 77.87,-128.85 0.22,103.3 49.65,-0.1 -0.22,-103.3 z
        m -28.49,0.06 -49.65,0.1 0.22,103.3 49.65,-0.1 z
        m -77.38,0.16 -49.65,0.1 0.28,135.82 49.65,-0.1 z
        m -78.14,0.16 -49.65,0.1 0.28,135.82 49.65,-0.1 z
        m 82.63,183.66 -131.9,0.28 0.16,75.86
        84.59,54.92 198.72,-61.6
        -0.09,-43.17 -151.42,0.32 -0.06,-26.56 z" />

  <!-- FIGURA SUPERPUESTA (OPCIONAL DECORATIVA) -->
  <path
     fill="#ffffff"
     d="m 859.96,135.53
        16.15,70.6 -87.05,-86.68
        70.9,16.08 -51,-50.78
        H 664.69
        L 562.7,186.31 V 329.97
        L 612.49,379.54 585.33,260.76
        731.78,406.59 612.49,379.54
        l 52.21,51.98
        h 144.27 l 51,-50.78
        -119.29,27.05 146.45,-145.83
        -27.16,118.79 51,-50.78
        V 186.31 Z" />

</svg>
