<?xml version="1.0" encoding="UTF-8" standalone="no"?>
<svg
    xmlns="http://www.w3.org/2000/svg"
    viewBox="0 0 1000 500"
    width="1000"
    height="500">

  <!-- Ícono derecho -->
  <g transform="translate(532,22) scale(5.6408552,5.7842525)">
    <rect
        width="76.71"
        height="76.71"
        rx="6.57"
        ry="6.57"
        fill="#915121" />

    <path
        fill="#ffffff"
        d="M52.29 16.07h8.31v8.31h-8.31z
           M27.85 22.56h6.48v6.48h-6.48z
           M13.55 8.92h10.81v10.81H13.55z
           M67.44 48.21v-2.11L38.35 34.49 9.26 46.1v2.11l29.09 11.6z" />

    <path
        fill="#ffffff"
        d="M67.52 53.52 38.35 65.3 9.19 53.52 7.72 57.16
           38.35 69.54 68.99 57.16z" />
  </g>

  <!-- Ícono izquierdo -->
  <g transform="translate(40,21) scale(6.1492635,5.8103247)">
    <rect
        width="76.71"
        height="76.71"
        rx="6.57"
        ry="6.57"
        fill="#60a1b8" />

    <path
        fill="#ffffff"
        d="M41 27.35L50.18 59.37 67.55 46.75 59.52 22.04Z
           M52.3 37.6a4.56 4.56 0 1 1 0-9.12
           a4.56 4.56 0 0 1 0 9.12z" />

    <path
        fill="#ffffff"
        d="M37.9 38.21L33.61 23.26 57.68 16.36 56.4 12.43H20.3L9.15 46.75Z
           M26.03 15.23a3.38 3.38 0 1 1 0 6.76
           a3.38 3.38 0 0 1 0-6.76z
           m13.01 26.95-25.69 7.63 25 18.17 6.69-4.87z" />
  </g>

</svg>
