<?xml version="1.0" encoding="UTF-8"?>
<svg
   viewBox="0 0 1000 500"
   width="1000"
   height="500"
   xmlns="http://www.w3.org/2000/svg">

  <defs/>

  <!-- FORMA SUPERIOR -->
  <path
     d="M 85.267731,404.66306 H 193.77583 c 0,0 29.66585,-250.39757 14.34054,-250.39757 -15.32529,0 -122.848639,250.39757 -122.848639,250.39757 z m 182.180359,0 h 108.44654 c 0,0 51.1459,-250.39757 35.8206,-250.39757 -15.32531,0 -144.26714,250.39757 -144.26714,250.39757 z m -36.86691,0 78.7807,-143.50336 c 0,0 28.68109,-170.69228 15.32531,-170.69228 -13.3558,0 -80.87331,151.96464 -80.87331,151.96464 l -13.29424,162.231 z"
     fill="#ffffff"
     style="stroke-width:5.8922" />

  <!-- ICONO LUCHA (solo uno, sin duplicados) -->
  <g transform="matrix(5.8801915,0,0,5.703224,35,28)">
    <rect
       width="76.709999"
       height="76.709999"
       rx="6.5700002"
       ry="6.5700002"
       fill="#50413f" />

    <path
       fill="#ffffff"
       d="m 60.1,20.73 c 0,0 -3.25,4.41 -10.78,6.74 0.84,2.28 1.32,4.93 1.32,7.9 0,10.15 -5.5,18.39 -12.28,18.39 -6.78,0 -12.28,-7.27 -12.28,-18.39 0,-2.95 0.58,-5.58 1.52,-7.84 -7.67,-2.32 -10.98,-6.8 -10.98,-6.8 0,0 -7.54,8.04 -6.83,17.19 0.42,5.33 3.3,11.6 10.35,17.38 0,0 7.54,6.66 18.22,6.66 10.68,0 18.22,-6.66 18.22,-6.66 C 63.63,49.52 66.51,43.26 66.93,37.92 67.65,28.77 60.1,20.73 60.1,20.73 Z"/>

    <path
       fill="#ffffff"
       d="m 35.54,28.85 c -0.96,2 -1.58,4.89 -1.58,7.72 0,5.08 1.97,9.19 4.39,9.19 2.42,0 4.39,-4.12 4.39,-9.19 0,-2.84 -0.61,-5.73 -1.58,-7.72 -0.9,0.04 -1.84,0.05 -2.81,0.02 -0.97,0.03 -1.91,0.02 -2.81,-0.02 z"/>
  </g>

  <!-- ICONO HIELO -->
  <g transform="matrix(6.0189024,0,0,5.7190719,511,31)">
    <rect
       width="76.709999"
       height="76.709999"
       rx="6.5700002"
       ry="6.5700002"
       fill="#3fd8ff" />

    <path fill="#ffffff" transform="rotate(-45,38.354,11.743)"
       d="m 33.44,6.82 h 9.83 v 9.83 h -9.83 z"/>

    <path fill="#ffffff"
       d="m 11.49,48.24 h 9.83 v 9.83 h -9.83 z"/>

    <path fill="#ffffff" transform="rotate(-45,38.353,64.974)"
       d="m 33.44,60.05 h 9.83 v 9.83 h -9.83 z"/>

    <path fill="#ffffff"
       d="m 55.38,18.75 v 9.77 L 38.35,18.69 21.32,28.52 v -9.77 h -9.83 v 9.83 h 9.83 v 19.6 l 17.03,9.83 17.03,-9.83 v -19.6 h 9.83 V 18.75 Z M 31.14,34.32 v 9.62 h -5.11 v -12.6 h 0.05 l 10.86,-6.27 2.55,4.42 -8.36,4.83 z m 24.24,13.92 h 9.83 v 9.83 h -9.83 z"/>
  </g>

</svg>
