<svg viewBox="0 0 1000 500" xmlns="http://www.w3.org/2000/svg">

  <!-- Bloque rosado -->
  <rect 
    x="20" 
    y="23" 
    width="479.71" 
    height="446.71" 
    rx="41.09" 
    ry="38.26" 
    fill="#ef4179" />

  <path 
    d="m 259.82373,117.80432 c 1.81354,0 3.6896,0.93173 4.50257,2.7952 16.3843,36.62894 54.96872,60.09709 96.74245,60.09709 4.44002,0 8.94258,-0.29116 13.44514,-0.81527 h 0.68789 c 3.93974,0 6.31608,4.25106 3.81466,7.33743 -28.64127,34.82371 -28.64127,83.507 -0.12506,118.38892 2.50142,3.02816 0.0625,7.27921 -3.81468,7.27921 h -0.68789 c -4.50256,-0.5241 -8.94258,-0.81527 -13.3826,-0.81527 -41.77372,0 -80.35814,23.40991 -96.74246,60.09708 -0.81296,1.86348 -2.68903,2.79522 -4.50255,2.79522 -1.81353,0 -3.6896,-0.93174 -4.50256,-2.79522 -16.3843,-36.62894 -54.96872,-60.09708 -96.74245,-60.09708 -4.44003,0 -8.94258,0.29117 -13.44514,0.81527 h -0.68789 c -3.93974,0 -6.31609,-4.25105 -3.81467,-7.33744 28.64127,-34.82369 28.64127,-83.50698 0.12507,-118.38892 -2.50142,-3.02814 -0.0625,-7.2792 3.81467,-7.2792 h 0.68789 c 4.50255,0.52411 8.94258,0.81527 13.3826,0.81527 41.77373,0 80.35815,-23.40991 96.74246,-60.09709 0.81295,-1.86347 2.68902,-2.7952 4.50255,-2.7952"
    fill="#ffffff" />

  <!-- Bloque celeste -->
  <rect 
    x="521" 
    y="24" 
    width="447.71" 
    height="445.71" 
    rx="38.35" 
    ry="38.17" 
    fill="#81b9ef" />

  <path 
    d="m 659.78951,184.94599 c -11.32261,25.73974 -43.77297,134.33471 -51.41865,192.61227 -3.91038,29.57455 -7.64568,39.85883 0,42.12485 9.68842,2.90516 50.48484,-59.90445 65.01746,-84.0754 0,0 92.91544,13.88668 140.5988,-45.26243 1.10892,-1.39448 -0.11673,-3.42809 -1.86765,-3.07947 -18.79319,3.19567 -86.43703,13.59616 -116.37775,2.03361 0,0 121.92234,4.70636 177.30974,-85.23746 0.75873,-1.16206 -0.46692,-2.67275 -1.75092,-2.20792 -19.20175,6.91428 -102.13695,34.0485 -151.80468,21.26579 0,0 80.71737,-4.70637 141.70772,-59.90445 60.99034,-55.19808 66.00964,-83.087644 61.63234,-87.445387 -8.28768,-8.250662 -50.48482,12.550307 -84.45266,23.183197 -33.96783,10.6329 -76.69025,23.18319 -104.82169,28.99351 -28.13143,5.81033 -51.41866,6.27516 -73.77206,56.99929 z"
    fill="#ffffff" />

</svg>
