<?xml version="1.0" encoding="UTF-8"?>
<svg
  viewBox="0 0 1000 500"
  width="1000"
  height="500"
  xmlns="http://www.w3.org/2000/svg">

  <!-- Fondo derecho -->
  <rect
    width="479.70999"
    height="446.70999"
    rx="41.085838"
    ry="38.25948"
    fill="#ef4179"
    x="501.04578"
    y="28.882355" />

  <!-- Figura tipo estrella -->
  <path
    d="m 740.86949,123.68668 c 1.81354,0 3.6896,0.93173 4.50257,2.7952 16.3843,36.62894 54.96872,60.09709 96.74245,60.09709 4.44002,0 8.94258,-0.29116 13.44514,-0.81527 h 0.68789 c 3.93974,0 6.31608,4.25106 3.81466,7.33743 -28.64127,34.82371 -28.64127,83.507 -0.12506,118.38892 2.50142,3.02816 0.0625,7.27921 -3.81468,7.27921 h -0.68789 c -4.50256,-0.5241 -8.94258,-0.81527 -13.3826,-0.81527 -41.77372,0 -80.35814,23.40991 -96.74246,60.09708 -0.81296,1.86348 -2.68903,2.79522 -4.50255,2.79522 -1.81353,0 -3.6896,-0.93174 -4.50256,-2.79522 -16.3843,-36.62894 -54.96872,-60.09708 -96.74245,-60.09708 -4.44003,0 -8.94258,0.29117 -13.44514,0.81527 h -0.68789 c -3.93974,0 -6.31609,-4.25105 -3.81467,-7.33744 28.64127,-34.82369 28.64127,-83.50698 0.12507,-118.38892 -2.50142,-3.02814 -0.0625,-7.2792 3.81467,-7.2792 h 0.68789 c 4.50255,0.52411 8.94258,0.81527 13.3826,0.81527 41.77373,0 80.35815,-23.40991 96.74246,-60.09709 0.81295,-1.86347 2.68902,-2.7952 4.50255,-2.7952"
    fill="#ffffff" />

  <!-- Fondo izquierdo -->
  <rect
    width="471.48126"
    height="440.7623"
    rx="40.381069"
    ry="37.750076"
    fill="#9fa19f"
    x="11.54249"
    y="30.490196" />

  <!-- Figura izquierda -->
  <path
    d="m 403.73668,182.35238 c 19.17639,-24.64961 14.93546,-59.35438 -10.38722,-79.23494 -24.58513,-19.305981 -60.35647,-17.869524 -83.22064,2.24087 -19.54519,-6.952454 -40.74986,-10.802157 -62.87647,-10.802157 -22.12661,0 -43.33129,3.849703 -62.87646,10.802157 -22.8027,-20.110394 -58.57406,-21.489392 -83.22065,-2.24087 -25.384129,19.88056 -29.563589,54.52787 -10.3872,79.23494 -13.337429,23.27059 -20.897364,49.81629 -20.897364,78.0283 0,91.41609 79.594344,165.82453 177.381674,165.82453 97.78734,0 177.38168,-74.40844 177.38168,-165.82453 0,-28.21201 -7.55992,-54.75771 -20.89735,-78.0283 z M 247.25235,380.2386 c -70.68222,0 -128.21144,-53.78093 -128.21144,-119.85792 0,-66.07699 57.52922,-119.85792 128.21144,-119.85792 70.68224,0 128.21142,53.78093 128.21142,119.85792 0,66.07699 -57.52918,119.85792 -128.21142,119.85792 z"
    fill="#ffffff" />

</svg>
