<?xml version="1.0" encoding="UTF-8" standalone="no"?>
<svg
   viewBox="0 0 1000 500"
   width="1000"
   height="500"
   xmlns="http://www.w3.org/2000/svg">

  <!-- IZQUIERDA (TU ORIGINAL - NO TOCADO) -->
  <rect
     width="452.71"
     height="454.71"
     rx="38.77"
     ry="38.94"
     fill="#91a119"
     x="38"
     y="20" />

  <path
     fill="#ffffff"
     d="m 264.3255,187.33755
        c 47.80277,0 89.64495,-20.39112 112.54308,-50.79996
        C 353.97045,99.31195 312.12827,74.356547 264.3255,74.356547
        c -47.80278,0 -89.64497,24.955403 -112.54309,62.181043
        22.89812,30.40884 64.74031,50.79996 112.54309,50.79996 z

        m 134.79203,-25.25179
        c -26.9112,29.75681 -69.04847,50.20719 -117.32337,54.17872
        l 64.50425,204.0297
        c 51.16667,-32.72062 85.10074,-89.68534 85.10074,-154.59311
        0,-38.47044 -11.92119,-74.09561 -32.28162,-103.61531 z

        m -269.52504,0
        c 26.91119,29.75681 69.04845,50.20719 117.32335,54.17872
        L 182.4116,420.29418
        C 131.24492,387.57356 97.31086,330.60884 97.31086,265.70107
        c 0,-38.47044 11.92118,-74.09561 32.28163,-103.61531 z

        M 264.3255,344.36099
        c 9.79662,0 19.53421,-2.19323 28.50461,-6.46114
        l -7.67204,-28.09705
        a 38.678939,38.849815 0 0 1 -41.72416,0
        l -7.67205,28.09705
        c 9.02942,4.26791 18.76702,6.46114 28.50462,6.46114 z

        m 0,54.17871
        c 14.93099,0 29.38985,-2.84527 42.90446,-8.06159
        L 299.38087,361.729
        c -10.91793,4.68284 -22.78009,7.17246 -35.05537,7.17246
        -12.27529,0 -24.07844,-2.48962 -35.05538,-7.17246
        l -7.84909,28.74911
        c 13.5146,5.21632 27.97348,8.06159 42.90447,8.06159 z" />

  <!-- DERECHA (LUCHA CORREGIDO) -->
  <rect
     width="452.71"
     height="454.71"
     rx="38.77"
     ry="38.94"
     fill="#ff8000"
     x="510"
     y="20" />

  <path
     fill="#ffffff"
     d="m 740,210 130,0 0,60 -130,0 z

        m 80,-120 0,100 50,0 0,-100 z

        m -30,0 -50,0 0,100 50,0 z

        m -80,0 -50,0 0,130 50,0 z

        m -80,0 -50,0 0,130 50,0 z

        m 85,180 -135,0 0,70
        85,55 205,-60
        0,-40 -155,0 0,-25 z" />

</svg>
