<?xml version="1.0" encoding="UTF-8"?>
<svg
   viewBox="0 0 1000 500.00001"
   width="1000"
   height="500"
   xmlns="http://www.w3.org/2000/svg">

  <defs />

  <!-- Rectángulo derecho -->
  <rect
     x="501"
     y="26"
     width="474.70999"
     height="432.70999"
     rx="40.657604"
     ry="37.060421"
     fill="#ef71ef" />

  <!-- Figura derecha -->
  <path
     d="m 911.66035,94.14153
        c -13.49064,-12.29706 -96.60048,-17.8251 -152.54336,33.16823
        -9.59198,8.74333 -16.27541,19.1789 -20.11221,30.17858
        -3.83679,-11.05608 -10.52023,-21.43525 -20.1122,-30.17858
        C 662.9497,76.31643 579.83986,81.84447 566.34921,94.14153
        c -13.49065,12.29706 -19.55526,88.05375 36.38762,139.04708
        11.81979,10.77404 26.36247,17.54307 41.64774,20.36349
        -30.94185,24.4249 -34.46922,63.06476 -28.52839,70.62351
        6.31215,8.01001 51.98233,18.10714 88.5556,-5.30241
        -1.67085,4.45628 -3.27983,9.02537 -4.88881,13.76369
        -15.28528,45.57811 -20.97858,84.38719 -12.80993,86.64353
        8.23054,2.31276 27.29071,-32.77336 42.576,-78.35147
        3.83679,-11.45094 7.11663,-22.50702 9.65386,-32.66055
        2.53723,10.15353 5.81707,21.20961 9.65385,32.66055
        15.28529,45.57811 34.34548,80.66423 42.57601,78.35147
        8.23053,-2.31275 2.47535,-41.12183 -12.80994,-86.64353
        -1.60897,-4.73832 -3.21795,-9.30741 -4.88881,-13.76369
        36.57328,23.40955 82.30535,13.31242 88.5556,5.30241
        5.94084,-7.55875 2.41347,-46.1422 -28.52839,-70.62351
        15.28528,-2.82042 29.82795,-9.58945 41.64775,-20.36349
        55.94288,-50.99333 49.87827,-126.75002 36.38762,-139.04708 z

        M 739.00478,252.36752
        c -26.67188,0 -49.75451,-13.82009 -61.26488,-34.01435
        31.00374,-0.11282 56.6236,-21.0968 60.70793,-48.34214
        0.12376,-0.6769 1.05202,-0.6769 1.1139,0
        4.08433,27.24534 29.70419,48.28572 60.70793,48.34214
        -11.51036,20.19426 -34.593,34.01435 -61.26488,34.01435 z"
     fill="#ffffff" />

  <!-- Rectángulo izquierdo -->
  <rect
     x="40"
     y="20"
     width="440.70999"
     height="434.70999"
     rx="37.745598"
     ry="37.231712"
     fill="#2980ef" />

  <!-- Figura izquierda -->
  <path
     d="m 351.64568,258.28373
        c 0,0 -22.85402,-39.32226 -33.76162,-56.06001
        -11.36929,-17.59758 -22.04604,-38.57709 -30.3566,-72.28188
        -8.31055,-33.64748 -12.8121,-66.091214 -26.20132,-66.091214
        -13.38921,0 -17.89077,32.386414 -26.20132,66.091214
        -8.31055,33.64747 -18.9873,54.62698 -30.3566,72.28188
        -10.84988,16.79507 -33.76161,56.06001 -33.76161,56.06001
        a 103.98577,103.28112 0 0 0 -14.88974,53.42325
        c 0,57.49304 47.32397,104.1524 105.20927,104.1524
        57.88531,0 105.20928,-46.60204 105.20928,-104.1524
        0,-19.54649 -5.48266,-37.7746 -14.88974,-53.42325 z

        m -90.31954,134.074
        c -47.20854,0 -84.31746,-34.96585 -84.31746,-60.18713
        0,-16.68044 37.10892,14.44492 84.31746,14.44492
        47.20855,0 84.31747,-31.12536 84.31747,-14.44492
        0,25.2786 -37.10892,60.18713 -84.31747,60.18713 z"
     fill="#ffffff" />

</svg>
