<?xml version="1.0" encoding="UTF-8" standalone="no"?>
<svg
    xmlns="http://www.w3.org/2000/svg"
    viewBox="0 0 1000 500"
    width="1000"
    height="500">

  <!-- Lado izquierdo -->
  <rect
      x="45"
      y="21"
      width="452.71"
      height="454.71"
      rx="38.77"
      ry="38.94"
      fill="#91a119" />

  <path
      fill="#ffffff"
      d="M271.33 188.34
         c47.8 0 89.64-20.39 112.54-50.8
         -22.9-37.23-64.74-62.18-112.54-62.18
         -47.8 0-89.64 24.95-112.54 62.18
         22.9 30.41 64.74 50.8 112.54 50.8z

         m134.79-25.25
         c-26.91 29.76-69.05 50.21-117.32 54.18
         l64.5 204.03
         c51.17-32.72 85.1-89.69 85.1-154.59
         0-38.47-11.92-74.1-32.28-103.62z

         m-269.53 0
         c26.91 29.76 69.05 50.21 117.32 54.18
         l-64.5 204.03
         c-51.17-32.72-85.1-89.69-85.1-154.59
         0-38.47 11.92-74.1 32.28-103.62z

         M271.33 345.36
         c9.8 0 19.53-2.19 28.5-6.46
         l-7.67-28.1
         a38.68 38.85 0 0 1 -41.72 0
         l-7.67 28.1
         c9.03 4.27 18.77 6.46 28.5 6.46z

         m0 54.18
         c14.93 0 29.39-2.85 42.9-8.06
         l-7.85-28.75
         c-10.92 4.68-22.78 7.17-35.05 7.17
         -12.28 0-24.08-2.49-35.06-7.17
         l-7.85 28.75
         c13.51 5.22 27.97 8.06 42.91 8.06z" />

  <!-- Lado derecho -->
  <g transform="translate(512,24) scale(5.81,5.89)">
    <rect
        width="76.71"
        height="76.71"
        rx="6.57"
        ry="6.57"
        fill="#60a1b8" />

    <path
        fill="#ffffff"
        d="M41 27.35
           L50.18 59.37
           L67.55 46.75
           L59.52 22.04
           Z

           M52.3 37.6
           a4.56 4.56 0 1 1 0-9.12
           a4.56 4.56 0 0 1 0 9.12z" />

    <path
        fill="#ffffff"
        d="M37.9 38.21
           L33.61 23.26
           L57.68 16.36
           L56.4 12.43
           H20.3
           L9.15 46.75
           Z

           M26.03 15.23
           a3.38 3.38 0 1 1 0 6.76
           a3.38 3.38 0 0 1 0-6.76z

           m13.01 26.95
           l-25.69 7.63
           l25 18.17
           l6.69-4.87
           z" />
  </g>

</svg>
